<svg width="95" height="14" viewBox="0 0 95 14" fill="none" xmlns="http://www.w3.org/2000/svg">
<g id="svgexport-1 2" clip-path="url(#clip0_1524_19210)">
<g id="Group">
<path id="Vector" d="M4.11722 3.68271C5.0956 2.73176 6.39189 2.20732 7.76694 2.20732H13.4376C13.8975 2.20732 14.2703 1.83482 14.2703 1.37536C14.2703 0.915903 13.8975 0.54248 13.4376 0.54248H7.76694C5.95491 0.54248 4.24638 1.23441 2.9556 2.49013C1.65841 3.75135 0.943848 5.42443 0.943848 7.20001C0.943848 8.97561 1.65841 10.6487 2.9556 11.9099C4.24638 13.1656 5.95583 13.8567 7.76694 13.8567H13.4376C13.8975 13.8567 14.2703 13.4842 14.2703 13.0247C14.2703 12.5652 13.8975 12.1927 13.4376 12.1927H7.76694C6.39189 12.1927 5.0956 11.6692 4.11722 10.7173C3.14523 9.77185 2.60931 8.52258 2.60931 7.20001C2.60931 5.87748 3.14432 4.62816 4.11722 3.68271Z" fill="white"/>
<path id="Vector_2" d="M43.3665 0.545328C42.9241 0.573701 42.5888 0.960852 42.5888 1.40384C42.5888 2.73552 42.5888 6.85782 42.5888 9.24935C42.5888 9.90192 41.7991 10.2278 41.3374 9.76649L32.3504 0.786954C32.0656 0.502311 31.6075 0.456549 31.2649 0.706413C31.0478 0.864751 30.9277 1.1256 30.9277 1.39468V12.9973C30.9277 13.4403 31.2621 13.8275 31.7055 13.8558C32.191 13.8869 32.5941 13.5035 32.5941 13.0257V5.15179C32.5941 4.49921 33.3838 4.17247 33.8455 4.63375L42.8334 13.6133C42.9928 13.7725 43.2053 13.8567 43.4224 13.8567C43.5653 13.8567 43.7092 13.8201 43.8401 13.7441C44.104 13.5922 44.2552 13.3002 44.2552 12.9964V1.37546C44.2552 0.8977 43.8521 0.513294 43.3665 0.545328Z" fill="white"/>
<path id="Vector_3" d="M78.3753 0.545131C77.9324 0.573504 77.5975 0.960655 77.5975 1.40364C77.5975 2.73533 77.5975 6.85761 77.5975 9.24917C77.5975 9.90173 76.8075 10.2276 76.3461 9.7663L67.3715 0.799571C67.181 0.609199 66.9126 0.509436 66.6461 0.551538C66.2268 0.616521 65.936 0.972553 65.936 1.37526V12.9962C65.936 13.4392 66.2703 13.8263 66.7138 13.8547C67.1996 13.8859 67.6029 13.5023 67.6029 13.0246V5.15159C67.6029 4.49902 68.3922 4.17227 68.8543 4.63355L77.8416 13.6131C78.0014 13.7724 78.2136 13.8566 78.4309 13.8566C78.5741 13.8566 78.7179 13.8199 78.8489 13.744C79.1122 13.592 79.2637 13.3001 79.2637 12.9962V1.37526C79.2637 0.897503 78.8604 0.513097 78.3753 0.545131Z" fill="white"/>
<path id="Vector_4" d="M58.1754 0.225342H46.5437C46.1003 0.225342 45.7128 0.559408 45.6844 1.00239C45.6532 1.48747 46.0371 1.89018 46.5153 1.89018H51.0546C51.3074 1.89018 51.5126 2.0952 51.5126 2.34781V12.6792C51.5126 13.1221 51.8469 13.5093 52.2904 13.5377C52.7759 13.5688 53.1789 13.1853 53.1789 12.7075V2.34781C53.1789 2.0952 53.3842 1.89018 53.637 1.89018H58.1479C58.5913 1.89018 58.9788 1.55612 59.0072 1.11313C59.0384 0.628052 58.6545 0.225342 58.1763 0.225342H58.1754Z" fill="white"/>
<path id="Vector_5" d="M61.736 0.54248C61.2761 0.54248 60.9033 0.914987 60.9033 1.37444V13.0247C60.9033 13.4842 61.2761 13.8567 61.736 13.8567C62.1959 13.8567 62.5688 13.4842 62.5688 13.0247V1.37536C62.5688 0.915903 62.1959 0.543396 61.736 0.543396V0.54248Z" fill="white"/>
<path id="Vector_6" d="M22.5993 0.54248C20.822 0.54248 19.1474 1.25638 17.8851 2.55237C16.6282 3.84196 15.9365 5.5489 15.9365 7.35929V13.0247C15.9365 13.4842 16.3094 13.8567 16.7692 13.8567C17.2292 13.8567 17.602 13.4842 17.602 13.0247V7.35929C17.602 5.98548 18.126 4.6904 19.0787 3.71291C20.0251 2.74183 21.2756 2.20641 22.5993 2.20641C23.9231 2.20641 25.1735 2.74091 26.1199 3.71291C27.0717 4.6904 27.5966 5.98548 27.5966 7.35929V13.0247C27.5966 13.4842 27.9695 13.8567 28.4293 13.8567C28.8893 13.8567 29.2621 13.4842 29.2621 13.0247V7.35929C29.2621 5.5489 28.5705 3.84196 27.3136 2.55237C26.0512 1.25729 24.3765 0.54248 22.5993 0.54248Z" fill="white"/>
<path id="Vector_7" d="M22.5994 7.19995C22.1395 7.19995 21.7666 7.57246 21.7666 8.03189V13.0246C21.7666 13.4841 22.1395 13.8566 22.5994 13.8566C23.0592 13.8566 23.4321 13.4841 23.4321 13.0246V8.03189C23.4321 7.57246 23.0592 7.19995 22.5994 7.19995Z" fill="white"/>
<path id="Vector_8" d="M92.3072 2.55237C91.0449 1.25729 89.3704 0.54248 87.593 0.54248C85.8156 0.54248 84.1411 1.25638 82.8789 2.55237C81.6217 3.84196 80.9302 5.5489 80.9302 7.35929V13.0247C80.9302 13.4842 81.3034 13.8567 81.763 13.8567C82.2231 13.8567 82.5957 13.4842 82.5957 13.0247V7.35929C82.5957 5.98548 83.1198 4.6904 84.0727 3.71291C85.0186 2.74183 86.2694 2.20641 87.593 2.20641C88.9167 2.20641 90.1674 2.74091 91.114 3.71291C92.0656 4.6904 92.5903 5.98548 92.5903 7.35929V13.0247C92.5903 13.4842 92.963 13.8567 93.4231 13.8567C93.8833 13.8567 94.2559 13.4842 94.2559 13.0247V7.35929C94.2559 5.5489 93.5644 3.84196 92.3072 2.55237Z" fill="white"/>
<path id="Vector_9" d="M87.5925 7.19995C87.133 7.19995 86.7598 7.57246 86.7598 8.03189V13.0246C86.7598 13.4841 87.133 13.8566 87.5925 13.8566C88.0527 13.8566 88.4253 13.4841 88.4253 13.0246V8.03189C88.4253 7.57246 88.0527 7.19995 87.5925 7.19995Z" fill="white"/>
</g>
</g>
<defs>
<clipPath id="clip0_1524_19210">
<rect width="93.312" height="13.3303" fill="white" transform="translate(0.943848 0.534668)"/>
</clipPath>
</defs>
</svg>
