<svg viewBox="0 0 127 27" fill="none" xmlns="http://www.w3.org/2000/svg">
<g id="svgexport-1 1" clip-path="url(#clip0_1524_19113)">
<g id="Group 687">
<g id="Group 481">
<path id="Path 241" d="M35.2739 10.6746C35.2834 10.3821 35.4018 10.1036 35.606 9.89386C35.7107 9.79653 35.8305 9.71675 35.9607 9.65761C36.0966 9.60378 36.2403 9.57184 36.3862 9.56299H40.5255C40.7435 9.56559 40.956 9.63194 41.1367 9.75386C41.3175 9.87578 41.4586 10.0479 41.5426 10.2491C41.5965 10.385 41.6284 10.5286 41.6373 10.6746V11.6705H40.5493V10.6746H36.41V16.1379H40.5493V15.1419H41.6378V16.1379C41.6352 16.3559 41.5688 16.5683 41.4469 16.749C41.325 16.9297 41.1528 17.0708 40.9516 17.1548C40.8157 17.2087 40.672 17.2406 40.5261 17.2495H36.3868C36.1688 17.2469 35.9563 17.1805 35.7755 17.0586C35.5948 16.9367 35.4537 16.7645 35.3697 16.5634C35.3158 16.4274 35.2839 16.2838 35.275 16.1379V10.6746" fill="white"/>
<path id="Path 242" d="M49.9391 9.58691V17.2258H48.8512V13.9613H44.475V17.2258H43.3633V9.58691H44.475V12.8741H48.8512V9.58691H49.9391Z" fill="white"/>
<path id="Path 243" d="M55.2849 9.58691L58.2416 17.2258H57.1537L56.4675 15.4757H53.0138L52.3276 17.2258H51.2402L54.1969 9.58691H55.2849ZM53.4399 14.3879H56.0408L54.7398 11.0061L53.4399 14.3879Z" fill="white"/>
<path id="Rectangle 110" d="M60.6304 9.58691H59.5425V17.2258H60.6304V9.58691Z" fill="white"/>
<path id="Path 244" d="M63.7056 17.2258H62.6177V9.58691H63.7056L68.2943 15.5233V9.58691H69.3822V17.2258H68.2943L63.7056 11.2894V17.2258Z" fill="white"/>
<path id="Path 245" d="M72.457 13.9617C72.239 13.9591 72.0265 13.8928 71.8457 13.7709C71.665 13.649 71.5239 13.4768 71.4399 13.2756C71.386 13.1397 71.3541 12.9961 71.3453 12.8502V10.6746C71.3547 10.3821 71.4731 10.1036 71.6773 9.89386C71.782 9.79653 71.9018 9.71675 72.032 9.65761C72.168 9.60378 72.3116 9.57184 72.4575 9.56299H76.1713C76.3893 9.56559 76.6018 9.63194 76.7825 9.75386C76.9633 9.87578 77.1044 10.0479 77.1884 10.2491C77.2422 10.385 77.2742 10.5286 77.283 10.6746V11.6705H76.1951V10.6746H72.4808V12.8502H76.1945C76.4125 12.8528 76.625 12.9191 76.8058 13.041C76.9865 13.1629 77.1276 13.3351 77.2116 13.5363C77.2655 13.6722 77.2974 13.8158 77.3063 13.9617V16.1373C77.3037 16.3553 77.2373 16.5678 77.1154 16.7485C76.9934 16.9292 76.8213 17.0703 76.6201 17.1543C76.4841 17.2081 76.3405 17.2401 76.1945 17.2489H72.3862C72.1681 17.2463 71.9557 17.18 71.7749 17.058C71.5942 16.9361 71.4531 16.764 71.3691 16.5628C71.3152 16.4269 71.2833 16.2833 71.2744 16.1373V15.1414H72.3624V16.1373H76.1707V13.9617H72.457Z" fill="white"/>
<path id="Path 246" d="M79.2222 9.58691H84.8047V10.6747H80.3107V12.8741H84.1428V13.9619H80.3107V16.138H84.8047V17.2258H79.2222V9.58691Z" fill="white"/>
<path id="Path 247" d="M86.4365 10.6746C86.446 10.3821 86.5644 10.1036 86.7686 9.89386C86.8733 9.79653 86.9931 9.71675 87.1233 9.65761C87.2592 9.60378 87.4029 9.57184 87.5488 9.56299H91.6881C91.9061 9.56559 92.1186 9.63194 92.2993 9.75386C92.4801 9.87578 92.6212 10.0479 92.7052 10.2491C92.7591 10.385 92.791 10.5286 92.7998 10.6746V11.6705H91.7119V10.6746H87.5726V16.1379H91.7119V15.1419H92.8004V16.1379C92.7978 16.3559 92.7314 16.5683 92.6095 16.749C92.4876 16.9297 92.3154 17.0708 92.1142 17.1548C91.9783 17.2087 91.8346 17.2406 91.6887 17.2495H87.5494C87.3314 17.2469 87.1189 17.1805 86.9381 17.0586C86.7574 16.9367 86.6163 16.7645 86.5323 16.5634C86.4784 16.4274 86.4465 16.2838 86.4376 16.1379V10.6746" fill="white"/>
<path id="Path 248" d="M94.5266 9.58691H95.6145V16.138H99.9907V9.58691H101.079V16.138C101.076 16.356 101.01 16.5685 100.888 16.7492C100.766 16.9299 100.594 17.071 100.392 17.155C100.256 17.2088 100.113 17.2407 99.9669 17.2496H95.5907C95.3727 17.247 95.1603 17.1806 94.9795 17.0587C94.7988 16.9368 94.6577 16.7647 94.5736 16.5635C94.5198 16.4276 94.4879 16.284 94.479 16.138V9.58691" fill="white"/>
<path id="Path 249" d="M109.097 12.3069C109.097 13.3709 108.648 13.9862 107.725 14.1279L109.168 17.2264H107.962L106.542 14.1754H104.153V17.2264H103.065V9.58691H107.252C108.482 9.58691 109.097 10.2016 109.097 11.4554V12.3069ZM104.13 13.0877H107.158C107.386 13.1012 107.612 13.0342 107.796 12.8984C107.939 12.718 108.007 12.4892 107.986 12.2599V11.5024C107.999 11.274 107.932 11.0481 107.796 10.8639C107.616 10.7209 107.387 10.6531 107.158 10.6747H104.13V13.0877Z" fill="white"/>
<path id="Rectangle 111" d="M112.006 9.58691H110.918V17.2258H112.006V9.58691Z" fill="white"/>
<path id="Path 250" d="M113.308 9.58691H119.435V10.6747H116.927V17.2258H115.839V10.6747H113.308V9.58691Z" fill="white"/>
<path id="Path 251" d="M121.255 9.58691L123.478 13.1579L125.702 9.58691H126.979L124.022 14.1987V17.2258H122.934V14.1987L119.978 9.58691H121.255Z" fill="white"/>
</g>
<g id="logo">
<path id="Line 108" d="M22.7359 19.7937L11.9937 1.19336" stroke="white" strokeWidth="0.2268" stroke-miterlimit="10"/>
<path id="Line 109" d="M1.25146 7.38696L22.7359 19.7937" stroke="white" strokeWidth="0.2268" stroke-miterlimit="10"/>
<path id="Line 110" d="M22.7359 7.38696L1.25146 19.7937" stroke="white" strokeWidth="0.2268" stroke-miterlimit="10"/>
<path id="Line 111" d="M11.9937 26.0068V1.19336" stroke="white" strokeWidth="0.2268" stroke-miterlimit="10"/>
<path id="Line 112" d="M22.7359 19.7937H1.25146" stroke="white" strokeWidth="0.2268" stroke-miterlimit="10"/>
<path id="Line 113" d="M11.9937 1.19336L1.25146 19.7937" stroke="white" strokeWidth="0.2268" stroke-miterlimit="10"/>
<path id="Line 114" d="M22.7359 7.38696H1.25146" stroke="white" strokeWidth="0.2268" stroke-miterlimit="10"/>
<path id="Line 115" d="M11.9937 26.0067L22.7359 7.38696" stroke="white" strokeWidth="0.2268" stroke-miterlimit="10"/>
<path id="Line 116" d="M1.25146 7.38696L11.9937 26.0067" stroke="white" strokeWidth="0.2268" stroke-miterlimit="10"/>
<path id="Path 238" d="M22.7359 19.7937V7.38703L11.9937 1.19336L1.25146 7.38703V19.7937L11.9937 26.0068L22.7359 19.7937Z" stroke="white" strokeWidth="0.2268" stroke-miterlimit="10"/>
<path id="Line 117" d="M1.25146 13.6001H22.7359" stroke="white" strokeWidth="0.2268" stroke-miterlimit="10"/>
<path id="Line 118" d="M6.52441 22.8513L17.4432 4.34888" stroke="white" strokeWidth="0.2268" stroke-miterlimit="10"/>
<path id="Line 119" d="M17.1884 23.008L6.7793 4.19238" stroke="white" strokeWidth="0.2268" stroke-miterlimit="10"/>
<path id="Path 239" d="M17.2862 10.5032L15.5414 7.46498L8.48465 7.38696L6.54395 10.5032L17.2862 16.6968L15.3455 19.7953H8.32804L6.54395 16.6968" stroke="white" strokeWidth="2.43" stroke-miterlimit="10" strokeLinecap="round" strokeLinejoin="round"/>
<path id="Path 240" d="M17.3648 4.34718L11.9151 1.19336L1.17285 7.38703V19.7937L11.9151 26.0068L17.1296 23.0079" stroke="white" strokeWidth="1.62" stroke-miterlimit="10" strokeLinecap="round" strokeLinejoin="round"/>
</g>
</g>
</g>
<defs>
<clipPath id="clip0_1524_19113">
<rect width="126.36" height="25.92" fill="white" transform="translate(0.619629 0.639893)"/>
</clipPath>
</defs>
</svg>
