<svg width="197" height="36" viewBox="0 0 197 36" fill="none" xmlns="http://www.w3.org/2000/svg">
<g clip-path="url(#clip0_11174_63778)">
<path d="M49.0599 26.3188H51.3779C51.3937 26.3188 51.409 26.3124 51.4202 26.3012C51.4314 26.2899 51.4377 26.2746 51.4377 26.2586V12.7327L60.3803 26.293C60.3867 26.3006 60.3945 26.3068 60.4034 26.3112C60.4122 26.3156 60.4218 26.3182 60.4317 26.3188H62.8437C62.8596 26.3188 62.8748 26.3124 62.8861 26.3012C62.8973 26.2899 62.9036 26.2746 62.9036 26.2586V9.42095C62.9036 9.40501 62.8973 9.38971 62.8861 9.37843C62.8748 9.36715 62.8596 9.36084 62.8437 9.36084H60.5471C60.5313 9.36084 60.516 9.36715 60.5048 9.37843C60.4936 9.38971 60.4873 9.40501 60.4873 9.42095V22.1351L52.2075 9.39088C52.2023 9.38182 52.1948 9.37429 52.1858 9.36902C52.1768 9.36375 52.1666 9.36093 52.1562 9.36084H49.0599C49.044 9.36084 49.0288 9.36715 49.0175 9.37843C49.0063 9.38971 49 9.40501 49 9.42095V26.2586C49 26.2746 49.0063 26.2899 49.0175 26.3012C49.0288 26.3124 49.044 26.3188 49.0599 26.3188Z" fill="white"/>
<path d="M76.7128 19.3775L79.4842 12.0755L82.3025 19.3775H76.7128ZM71.5423 26.3617H74.0228C74.035 26.3623 74.0471 26.3589 74.0571 26.3519C74.0672 26.3449 74.0746 26.3348 74.0784 26.3231L75.8361 21.6626H83.1792L84.984 26.3231C84.9878 26.3348 84.9952 26.3449 85.0053 26.3519C85.0153 26.3589 85.0274 26.3623 85.0396 26.3617H87.5458C87.5558 26.3621 87.5657 26.3599 87.5747 26.3554C87.5837 26.3509 87.5914 26.3442 87.5971 26.336C87.6013 26.3273 87.6034 26.3177 87.6034 26.308C87.6034 26.2984 87.6013 26.2888 87.5971 26.2801L80.934 9.44673C80.9302 9.43504 80.9227 9.42493 80.9127 9.41795C80.9026 9.41096 80.8906 9.4075 80.8784 9.40809H78.2097C78.1969 9.40725 78.1842 9.41054 78.1734 9.4175C78.1626 9.42446 78.1544 9.4347 78.1498 9.44673L71.4867 26.2801C71.4814 26.2884 71.4785 26.2981 71.4785 26.308C71.4785 26.3179 71.4814 26.3276 71.4867 26.336C71.4924 26.3442 71.5001 26.3509 71.5091 26.3554C71.518 26.3599 71.528 26.3621 71.538 26.3617" fill="white"/>
<path d="M101.271 26.6753C104.607 26.6753 107.126 24.5276 107.126 21.6283C107.126 19.2057 105.522 17.4618 102.726 16.8433L100.219 16.2978C98.8851 16.0057 98.1153 15.138 98.1153 13.9096C98.1153 12.3461 99.4838 11.1691 101.293 11.1691C102.426 11.1691 104.436 11.7619 104.783 13.9912C104.783 13.9998 104.786 14.0082 104.79 14.0157C104.795 14.0232 104.801 14.0295 104.808 14.0341C104.825 14.0404 104.843 14.0404 104.86 14.0341L106.942 13.2996C106.956 13.2948 106.967 13.2851 106.974 13.2725C106.981 13.2599 106.984 13.2451 106.981 13.2309C106.776 12.2387 105.758 9 101.246 9C98.2179 9 95.6561 11.3238 95.6561 14.0728C95.6561 16.461 97.1616 18.1619 99.7917 18.7375L102.182 19.2615C103.722 19.588 104.641 20.5501 104.641 21.813C104.641 23.0758 103.748 24.4374 101.246 24.4374C98.5558 24.4374 97.4353 22.5217 97.2899 20.8809C97.2892 20.8722 97.2865 20.8638 97.2821 20.8564C97.2776 20.8489 97.2715 20.8426 97.2642 20.8379C97.2555 20.8337 97.246 20.8316 97.2364 20.8316C97.2268 20.8316 97.2173 20.8337 97.2086 20.8379L94.989 21.5509C94.9749 21.554 94.9626 21.5625 94.9547 21.5745C94.9467 21.5865 94.9437 21.6012 94.9462 21.6154C95.2456 23.952 97.0846 26.6796 101.271 26.6796" fill="white"/>
<path d="M123.976 26.6753C127.619 26.6753 130.476 24.5835 131.434 21.2159C131.438 21.2011 131.437 21.1853 131.43 21.1717C131.422 21.1581 131.41 21.1478 131.396 21.1429L129.339 20.3826C129.331 20.3794 129.323 20.3778 129.315 20.3778C129.307 20.3778 129.299 20.3794 129.292 20.3826C129.284 20.3853 129.278 20.3899 129.272 20.3959C129.267 20.4019 129.263 20.4092 129.262 20.417C128.505 22.9555 126.58 24.4116 123.976 24.4116C121.136 24.4116 118.078 22.3499 118.078 17.8226C118.078 13.2953 121.136 11.2594 123.976 11.2594C126.67 11.2594 128.505 12.651 129.142 15.181C129.146 15.1973 129.157 15.2112 129.172 15.2196C129.179 15.2228 129.187 15.2245 129.195 15.2245C129.204 15.2245 129.212 15.2228 129.219 15.2196L131.357 14.4637C131.372 14.4587 131.384 14.4484 131.391 14.4348C131.398 14.4213 131.4 14.4054 131.396 14.3906C130.515 11.0145 127.735 9 123.963 9C121.822 9.00082 119.761 9.81925 118.198 11.2894C117.335 12.1369 116.656 13.1552 116.206 14.2799C115.755 15.4045 115.542 16.6109 115.581 17.8226C115.581 20.4857 116.466 22.7494 118.147 24.3687C119.715 25.8702 121.805 26.6964 123.971 26.671" fill="white"/>
<path d="M140.949 26.3189H151.136C151.152 26.3189 151.167 26.3125 151.178 26.3012C151.19 26.29 151.196 26.2747 151.196 26.2587V24.1111C151.196 24.0951 151.19 24.0798 151.178 24.0685C151.167 24.0573 151.152 24.0509 151.136 24.0509H143.322V19.0039H150.405C150.421 19.0039 150.436 18.9976 150.447 18.9863C150.458 18.975 150.465 18.9597 150.465 18.9438V16.7575C150.465 16.7415 150.458 16.7262 150.447 16.7149C150.436 16.7037 150.421 16.6973 150.405 16.6973H143.322V11.6417H151.136C151.152 11.6417 151.167 11.6354 151.178 11.6241C151.19 11.6128 151.196 11.5975 151.196 11.5816V9.43392C151.196 9.41797 151.19 9.40267 151.178 9.3914C151.167 9.38012 151.152 9.37378 151.136 9.37378H140.949C140.933 9.37374 140.917 9.37994 140.905 9.39111C140.893 9.40228 140.886 9.41759 140.885 9.43392V26.2716C140.886 26.2879 140.893 26.3032 140.905 26.3144C140.917 26.3256 140.933 26.3318 140.949 26.3317" fill="white"/>
<path d="M161.593 26.3188H163.907C163.923 26.3188 163.938 26.3124 163.949 26.3012C163.961 26.2899 163.967 26.2746 163.967 26.2586V12.7327L172.914 26.293C172.919 26.3005 172.927 26.3066 172.935 26.3111C172.943 26.3155 172.952 26.3182 172.961 26.3188H175.373C175.389 26.3188 175.404 26.3124 175.415 26.3012C175.427 26.2899 175.433 26.2746 175.433 26.2586V9.42096C175.433 9.40501 175.427 9.38971 175.415 9.37843C175.404 9.36715 175.389 9.36084 175.373 9.36084H173.059C173.043 9.3608 173.027 9.367 173.015 9.37817C173.003 9.38934 172.996 9.40462 172.995 9.42096V22.1351L164.737 9.39088C164.732 9.38242 164.725 9.37525 164.717 9.37002C164.709 9.36478 164.699 9.36164 164.69 9.36084H161.593C161.577 9.3608 161.561 9.367 161.55 9.37817C161.538 9.38934 161.53 9.40462 161.529 9.42096V26.2586C161.53 26.275 161.538 26.2903 161.55 26.3015C161.561 26.3126 161.577 26.3188 161.593 26.3188Z" fill="white"/>
<path d="M196.974 9.36084H183.443C183.427 9.36084 183.412 9.36715 183.4 9.37843C183.389 9.38971 183.383 9.40501 183.383 9.42095V11.5686C183.383 11.585 183.389 11.6008 183.4 11.6127C183.411 11.6247 183.426 11.632 183.443 11.6331H189.002V26.2372C189.002 26.2531 189.009 26.2684 189.02 26.2797C189.031 26.291 189.046 26.2973 189.062 26.2973H191.38C191.396 26.2973 191.411 26.291 191.423 26.2797C191.434 26.2684 191.44 26.2531 191.44 26.2372V11.6331H197" fill="white"/>
</g>
<g clip-path="url(#clip1_11174_63778)">
<path d="M28.3141 16.604H27.5793C25.57 16.6117 23.5974 17.1446 21.8553 18.1503C20.1133 19.1559 18.6619 20.5996 17.6439 22.3395C17.6298 22.3639 17.6097 22.3843 17.5855 22.3986C17.5613 22.4129 17.5338 22.4206 17.5057 22.4211C17.4776 22.4206 17.4501 22.4129 17.4259 22.3986C17.4017 22.3843 17.3816 22.3639 17.3675 22.3395C16.3507 20.6029 14.9022 19.1614 13.164 18.156C11.4258 17.1506 9.45741 16.6158 7.45158 16.604H0V21.0121H7.45483C9.46082 21.0241 11.4293 21.5591 13.1676 22.5648C14.9058 23.5705 16.3541 25.0124 17.3708 26.7492C17.3848 26.7737 17.4049 26.794 17.4291 26.8083C17.4534 26.8226 17.4809 26.8304 17.5089 26.8308C17.537 26.8304 17.5645 26.8226 17.5887 26.8083C17.613 26.794 17.6331 26.7737 17.6471 26.7492C18.6649 25.0091 20.1163 23.565 21.8583 22.5591C23.6004 21.5532 25.5731 21.02 27.5826 21.0121H35V16.604H28.3141Z" fill="white"/>
<path d="M17.4536 15.4154C21.692 15.4154 25.1279 11.9645 25.1279 7.70768C25.1279 3.45085 21.692 0 17.4536 0C13.2152 0 9.7793 3.45085 9.7793 7.70768C9.7793 11.9645 13.2152 15.4154 17.4536 15.4154Z" fill="white"/>
<path d="M27.9109 25.4121H27.5858C25.5767 25.4195 23.604 25.9521 21.862 26.9575C20.1199 27.9628 18.6685 29.4063 17.6504 31.1459C17.6365 31.1707 17.6165 31.1914 17.5923 31.206C17.568 31.2206 17.5404 31.2286 17.5122 31.2292C17.4839 31.2286 17.4563 31.2206 17.4321 31.206C17.4079 31.1914 17.3879 31.1707 17.374 31.1459C16.3571 29.4096 14.9086 27.9683 13.1704 26.9631C11.4321 25.958 9.46379 25.4236 7.45808 25.4121H0V29.8202H7.45483C9.46082 29.8322 11.4293 30.3672 13.1676 31.3729C14.9058 32.3786 16.3541 33.8205 17.3708 35.5573C17.3848 35.5818 17.4049 35.6021 17.4291 35.6164C17.4534 35.6307 17.4809 35.6385 17.5089 35.639C17.537 35.6385 17.5645 35.6307 17.5887 35.6164C17.613 35.6021 17.6331 35.5818 17.6471 35.5573C18.6646 33.8169 20.1158 32.3725 21.8579 31.3666C23.6001 30.3606 25.573 29.8277 27.5826 29.8202H35V25.4121H27.9109Z" fill="white"/>
</g>
<defs>
<clipPath id="clip0_11174_63778">
<rect width="148" height="18" fill="white" transform="translate(49 9)"/>
</clipPath>
<clipPath id="clip1_11174_63778">
<rect width="35" height="36" fill="white"/>
</clipPath>
</defs>
</svg>
