<svg viewBox="0 0 108 19" fill="none" xmlns="http://www.w3.org/2000/svg">
<g id="openzeppelin_logo 1" clip-path="url(#clip0_1524_19222)">
<path id="Vector" d="M26.1255 13.6234C23.6013 13.6234 21.748 11.7869 21.748 9.32152C21.748 6.88123 23.6181 5.01955 26.1422 5.01955C28.6664 5.01955 30.5365 6.90639 30.5365 9.32152C30.5281 11.7618 28.6496 13.6234 26.1255 13.6234ZM26.1422 12.1224C27.7356 12.1224 28.876 10.94 28.876 9.32152C28.876 7.73659 27.7356 6.52064 26.1422 6.52064C24.5322 6.52064 23.3917 7.7282 23.3917 9.32152C23.3917 10.9316 24.5322 12.1224 26.1422 12.1224ZM32.222 16.1979V7.23343H33.7482V8.03009H33.8321C33.9998 7.77012 34.5701 7.08248 35.7105 7.08248C37.4632 7.08248 38.6624 8.39069 38.6624 10.3278C38.6624 12.2649 37.4716 13.6234 35.7609 13.6234C34.6539 13.6234 34.0585 13.0029 33.8573 12.6591H33.7734V16.1895H32.222V16.1979ZM35.4086 12.2314C36.4066 12.2314 37.0858 11.4599 37.0858 10.3614C37.0858 9.22088 36.4066 8.49131 35.4003 8.49131C34.3772 8.49131 33.7315 9.31313 33.7315 10.3614C33.7315 11.5186 34.4443 12.2314 35.4086 12.2314ZM43.0817 13.6234C41.2368 13.6234 39.9286 12.2482 39.9286 10.3865C39.9286 8.41583 41.2536 7.08248 43.0817 7.08248C45.0943 7.08248 46.1845 8.56679 46.1845 10.3194V10.8058H41.4213C41.4716 11.7534 42.1257 12.3907 43.1237 12.3907C43.8868 12.3907 44.4654 12.0385 44.6834 11.527H46.1258C45.8239 12.7932 44.7002 13.6234 43.0817 13.6234ZM41.4549 9.71565H44.717C44.6415 8.87706 43.9874 8.31521 43.0901 8.31521C42.218 8.31521 41.5471 8.93576 41.4549 9.71565ZM47.8533 13.4725V7.23343H49.3292V7.98816H49.4131C49.6646 7.52694 50.2852 7.07409 51.1741 7.07409C52.5746 7.07409 53.4383 8.05524 53.4383 9.3886V13.4641H51.8953V9.79113C51.8953 9.03639 51.4089 8.52486 50.6961 8.52486C49.9498 8.52486 49.4131 9.12026 49.4131 9.90015V13.4725H47.8533ZM54.9729 13.4725V12.0637L59.3084 6.62126V6.5374H55.1322V5.17051H61.2875V6.57094L56.952 12.0134V12.1056H61.3043V13.4725H54.9729ZM65.4888 13.6234C63.6439 13.6234 62.3357 12.2482 62.3357 10.3865C62.3357 8.41583 63.6607 7.08248 65.4888 7.08248C67.5014 7.08248 68.5916 8.56679 68.5916 10.3194V10.8058H63.8284C63.8787 11.7534 64.5328 12.3907 65.5307 12.3907C66.2938 12.3907 66.8725 12.0385 67.0905 11.527H68.5329C68.2226 12.7932 67.1073 13.6234 65.4888 13.6234ZM63.8619 9.71565H67.1241C67.0486 8.87706 66.3945 8.31521 65.4972 8.31521C64.6251 8.31521 63.9542 8.93576 63.8619 9.71565ZM70.2604 16.1979V7.23343H71.7866V8.03009H71.8705C72.0382 7.77012 72.6084 7.08248 73.7489 7.08248C75.5016 7.08248 76.7007 8.39069 76.7007 10.3278C76.7007 12.2649 75.5099 13.6234 73.7992 13.6234C72.6923 13.6234 72.0969 13.0029 71.8956 12.6591H71.8118V16.1895H70.2604V16.1979ZM73.447 12.2314C74.4449 12.2314 75.1242 11.4599 75.1242 10.3614C75.1242 9.22088 74.4449 8.49131 73.4386 8.49131C72.4156 8.49131 71.7698 9.31313 71.7698 10.3614C71.7698 11.5186 72.4826 12.2314 73.447 12.2314ZM78.3611 16.1979V7.23343H79.8874V8.03009H79.9712C80.1389 7.77012 80.7092 7.08248 81.8497 7.08248C83.6023 7.08248 84.8015 8.39069 84.8015 10.3278C84.8015 12.2649 83.6107 13.6234 81.9 13.6234C80.793 13.6234 80.1976 13.0029 79.9964 12.6591H79.9125V16.1895H78.3611V16.1979ZM81.5562 12.2314C82.5541 12.2314 83.2333 11.4599 83.2333 10.3614C83.2333 9.22088 82.5541 8.49131 81.5478 8.49131C80.5247 8.49131 79.879 9.31313 79.879 10.3614C79.879 11.5186 80.5918 12.2314 81.5562 12.2314ZM89.2292 13.6234C87.3843 13.6234 86.0762 12.2482 86.0762 10.3865C86.0762 8.41583 87.4011 7.08248 89.2292 7.08248C91.2419 7.08248 92.332 8.56679 92.332 10.3194V10.8058H87.5688C87.6192 11.7534 88.2733 12.3907 89.2712 12.3907C90.0343 12.3907 90.6129 12.0385 90.8309 11.527H92.2733C91.963 12.7932 90.8477 13.6234 89.2292 13.6234ZM87.594 9.71565H90.8561C90.7806 8.87706 90.1265 8.31521 89.2292 8.31521C88.3571 8.31521 87.6946 8.93576 87.594 9.71565ZM95.5187 13.4725C94.4201 13.4725 93.8079 12.8184 93.8079 11.7199V4.5835H95.3509V11.5773C95.3509 11.9295 95.527 12.1224 95.8541 12.1224H96.1057V13.4725H95.5187ZM98.3615 6.40322C97.7996 6.40322 97.4055 6.05941 97.4055 5.50594C97.4055 4.96925 97.7996 4.61704 98.3615 4.61704C98.9233 4.61704 99.3175 4.96925 99.3175 5.50594C99.3175 6.05941 98.9233 6.40322 98.3615 6.40322ZM97.59 13.4725V7.23343H99.133V13.4725H97.59ZM101.02 13.4725V7.23343H102.496V7.98816H102.58C102.831 7.52694 103.452 7.07409 104.341 7.07409C105.741 7.07409 106.604 8.05524 106.604 9.3886V13.4641H105.062V9.79113C105.062 9.03639 104.575 8.52486 103.863 8.52486C103.116 8.52486 102.58 9.12026 102.58 9.90015V13.4725H101.02Z" fill="white"/>
<path id="Vector_2" fill-rule="evenodd" clip-rule="evenodd" d="M15.6263 17.8497H6.20898L7.7436 15.2837C8.40609 14.1767 9.59688 13.5059 10.8883 13.5059H15.6263V17.8497Z" fill="white"/>
<path id="Vector_3" fill-rule="evenodd" clip-rule="evenodd" d="M0.540039 1.15381H15.6262L13.0266 5.49769H0.540039V1.15381Z" fill="white"/>
<path id="Vector_4" fill-rule="evenodd" clip-rule="evenodd" d="M6.51012 7.94626C7.23132 6.73869 8.53951 6.00073 9.94835 6.00073H12.7492L5.62122 17.85H0.556152L6.51012 7.94626Z" fill="white"/>
</g>
<defs>
<clipPath id="clip0_1524_19222">
<rect width="106.92" height="17.82" fill="white" transform="translate(0.540039 0.290039)"/>
</clipPath>
</defs>
</svg>
