<svg width="96" height="24" viewBox="0 0 96 24" fill="none" xmlns="http://www.w3.org/2000/svg">
<g id="svgexport-1 (1) 1" clip-path="url(#clip0_1524_19181)">
<path id="Vector" fill-rule="evenodd" clip-rule="evenodd" d="M24.0849 12.3564C24.1275 13.2877 23.9811 14.199 23.7406 15.0911C23.1495 17.2787 22.0155 19.1426 20.2506 20.5762C18.173 22.2628 15.7854 23.1549 13.0844 23.1453C13.0645 23.1453 13.0446 23.1356 13.0239 23.1301C13.0274 23.0511 12.9834 22.9961 12.9332 22.9398C12.349 22.2793 11.7738 21.6092 11.1786 20.959C10.9958 20.7597 10.9999 20.6346 11.182 20.4395C11.7216 19.8635 12.2459 19.2725 12.7607 18.6745C12.8693 18.5501 13.0342 18.4395 13.0246 18.2361C13.4191 18.2539 13.8095 18.2182 14.1978 18.1453C16.4795 17.7137 17.9936 16.3846 18.8087 14.2348C19.0362 13.6361 19.0767 13.0039 19.1661 12.3798C19.9386 12.9922 20.6918 13.6279 21.4162 14.2952C21.5784 14.4451 21.6712 14.4863 21.8595 14.3145C22.5901 13.6499 23.3413 13.0073 24.0849 12.3564Z" fill="white"/>
<path id="Vector_2" fill-rule="evenodd" clip-rule="evenodd" d="M13.024 18.2357C13.0336 18.4391 12.8687 18.5497 12.7608 18.6748C12.2453 19.2727 11.7209 19.8631 11.1814 20.439C10.9993 20.6342 10.9952 20.7593 11.178 20.9586C11.7738 21.6088 12.3484 22.2789 12.9333 22.94C12.9828 22.9964 13.0267 23.0507 13.024 23.1297C11.769 23.1387 10.5601 22.8892 9.38557 22.4713C7.83096 21.9181 6.47843 21.048 5.32587 19.8652C4.25716 18.7683 3.49635 17.4879 2.91011 16.0804C2.38984 14.8316 2.18572 13.5423 2.20428 12.2041C2.24345 12.1931 2.29156 12.1925 2.32111 12.1691C3.04894 11.587 3.77126 10.9966 4.44891 10.3561C4.63241 10.1822 4.76093 10.1767 4.94581 10.3526C5.30663 10.6949 5.686 11.0179 6.06125 11.3444C6.39321 11.6337 6.72997 11.9162 7.07015 12.2062C7.17874 12.0536 7.08183 11.8859 7.18698 11.7677C7.18286 12.0261 7.1643 12.2852 7.17599 12.543C7.24334 14.0646 7.78766 15.3697 8.89554 16.446C9.93264 17.4535 11.1409 18.07 12.5855 18.2143C12.6068 18.2432 12.6302 18.2501 12.6563 18.2198C12.7793 18.2247 12.9017 18.2302 13.024 18.2357Z" fill="white"/>
<g id="Mask group">
<mask id="mask0_1524_19181" style="mask-type:alpha" maskUnits="userSpaceOnUse" x="2" y="1" width="14" height="12">
<g id="Group">
<path id="Vector_3" fill-rule="evenodd" clip-rule="evenodd" d="M2.20459 1.54736H15.3325V12.2061H2.20459V1.54736Z" fill="white"/>
</g>
</mask>
<g mask="url(#mask0_1524_19181)">
<g id="Group_2">
<path id="Vector_4" fill-rule="evenodd" clip-rule="evenodd" d="M7.18732 11.7677C7.08148 11.8859 7.17907 12.0536 7.07048 12.2061C6.73028 11.9161 6.39352 11.6336 6.06156 11.3443C5.68563 11.0179 5.30625 10.6948 4.94612 10.3526C4.76124 10.1773 4.63272 10.1821 4.44922 10.356C3.77157 10.9965 3.04925 11.5869 2.32074 12.169C2.29119 12.1924 2.24376 12.1931 2.20459 12.2041C2.20734 12.0611 2.21078 11.9175 2.21421 11.7739C2.29187 11.6467 2.26163 11.5127 2.24239 11.3794C2.25476 11.2811 2.26713 11.1835 2.2795 11.0866C2.34892 11.0034 2.32967 10.9113 2.30631 10.8192C2.41352 9.99656 2.64788 9.21582 2.96678 8.44539C4.03617 5.86054 5.77772 3.89013 8.29726 2.66128C9.83469 1.91147 11.4745 1.48811 13.2113 1.55409C13.2889 1.65099 13.3618 1.75271 13.4456 1.84412C14.0298 2.47778 14.6106 3.11488 15.2044 3.73961C15.372 3.91693 15.3775 4.02758 15.2071 4.22277C14.5611 4.96846 13.8195 5.62755 13.2106 6.40623C13.1384 6.4131 13.0662 6.42273 12.9934 6.42685C10.9013 6.52719 9.29587 7.50312 8.09933 9.17596C7.64092 9.8165 7.39075 10.5581 7.24986 11.3326C7.19763 11.3704 7.18938 11.4192 7.21343 11.4763C7.2045 11.5739 7.19625 11.6701 7.18732 11.7677Z" fill="white"/>
</g>
</g>
</g>
<path id="Vector_5" fill-rule="evenodd" clip-rule="evenodd" d="M13.2109 6.40612C13.8199 5.62744 14.5614 4.96903 15.2075 4.22334C15.3772 4.02815 15.3724 3.91681 15.204 3.74018C14.6109 3.11477 14.0295 2.47835 13.446 1.844C13.3621 1.75259 13.2893 1.65087 13.2109 1.55397C14.3477 1.52029 15.448 1.72029 16.5277 2.05911C17.6713 2.41787 18.7112 2.978 19.6809 3.67421C22.0781 5.39582 23.4437 7.75524 23.9661 10.6225C24.0692 11.1909 24.1379 11.7723 24.0843 12.3565C23.3413 13.0074 22.5901 13.65 21.8596 14.3139C21.6713 14.4857 21.5778 14.4452 21.4156 14.2953C20.6912 13.6273 19.9387 12.9923 19.1662 12.3799C19.1531 12.2885 19.1345 12.1964 19.1277 12.105C18.96 9.8576 17.8988 8.17997 15.914 7.09201C15.0728 6.63154 14.1511 6.48172 13.2109 6.40612Z" fill="white"/>
<g id="Mask group_2">
<mask id="mask1_1524_19181" style="mask-type:alpha" maskUnits="userSpaceOnUse" x="86" y="8" width="10" height="15">
<g id="Group_3">
<path id="Vector_6" fill-rule="evenodd" clip-rule="evenodd" d="M86.0742 8.41553H95.0727V22.441H86.0742V8.41553Z" fill="white"/>
</g>
</mask>
<g mask="url(#mask1_1524_19181)">
<g id="Group_4">
<path id="Vector_7" fill-rule="evenodd" clip-rule="evenodd" d="M89.9929 13.9072C90.6232 13.9058 91.0871 13.8508 91.5008 13.5986C92.2383 13.1505 92.6142 12.1814 92.4348 11.222C92.2493 10.2303 91.7132 9.67083 90.7613 9.49833C89.2686 9.22754 88.0432 9.87701 87.8315 11.2921C87.7463 11.8605 87.7964 12.4295 88.1229 12.9134C88.5992 13.6185 89.2899 13.9484 89.9929 13.9072ZM90.5215 18.0796C90.063 18.0796 89.6033 18.0617 89.1462 18.0844C88.4803 18.1174 87.872 18.2817 87.5002 18.914C86.9181 19.9029 87.3002 20.8837 88.3916 21.1785C89.2418 21.4081 90.1063 21.3854 90.9675 21.2837C91.7338 21.1943 92.4541 20.9648 93.0321 20.4163C93.4547 20.015 93.6039 19.5291 93.4362 18.9703C93.2843 18.4638 92.8637 18.2989 92.3915 18.2054C91.7716 18.083 91.1441 18.1449 90.5215 18.0796ZM94.0905 9.87976C93.8918 9.87976 93.6932 9.88938 93.496 9.87701C93.2602 9.86121 93.2039 9.90931 93.3269 10.1416C93.7626 10.9629 93.8375 11.8351 93.5571 12.712C93.1207 14.0742 92.0699 14.6783 90.7242 14.8659C90.1407 14.947 89.5558 14.914 88.9861 14.7553C88.8356 14.7134 88.7297 14.736 88.6129 14.824C88.1978 15.1401 87.7607 15.437 87.804 16.0542C87.8267 16.38 87.9408 16.6137 88.272 16.7511C88.6081 16.8906 88.9469 16.9504 89.3057 16.9566C90.2129 16.971 91.1208 16.9923 92.028 17.0109C92.6953 17.024 93.3255 17.1827 93.9173 17.492C94.4939 17.793 94.9056 18.7676 94.819 19.5593C94.7028 20.6177 94.0334 21.239 93.1606 21.7022C91.9132 22.3634 90.5675 22.5125 89.1827 22.4129C88.5476 22.3675 87.9188 22.2775 87.3298 22.0115C85.8583 21.3469 85.8562 19.7366 86.4315 18.7799C86.6494 18.4171 86.9236 18.1064 87.2899 17.8892C87.4411 17.7999 87.4947 17.7394 87.3222 17.613C86.3477 16.8982 86.6363 15.5333 87.25 14.936C87.3992 14.791 87.5401 14.6302 87.7112 14.5168C87.9311 14.3711 87.8617 14.2989 87.6968 14.1683C85.9985 12.8247 86.1401 10.0048 88.0067 8.98768C89.4005 8.22756 90.8623 8.21794 92.2822 9.00005C92.4554 9.09627 92.595 9.11414 92.7743 9.04266C93.4025 8.79456 94.0692 8.73752 94.7331 8.66879C94.9042 8.65161 94.9908 8.69009 95.0203 8.89009C95.1564 9.79866 95.0877 9.87908 94.0905 9.87976Z" fill="white"/>
</g>
</g>
</g>
<path id="Vector_8" fill-rule="evenodd" clip-rule="evenodd" d="M38.8507 12.4718C39.6747 12.4718 40.4994 12.4725 41.3242 12.4711C41.4561 12.4704 41.6135 12.5027 41.6053 12.2855C41.5709 11.3178 41.2994 10.467 40.45 9.88694C39.817 9.45464 39.1118 9.44365 38.4026 9.55499C37.6315 9.67595 37.05 10.1103 36.639 10.7694C36.3579 11.2209 36.2603 11.733 36.1531 12.2415C36.1071 12.4601 36.2418 12.4738 36.4088 12.4731C37.2225 12.4697 38.0363 12.4718 38.8507 12.4718ZM39.4575 13.4614C38.4246 13.4614 37.3916 13.4608 36.3593 13.4621C36.228 13.4621 36.0734 13.4257 36.0851 13.6477C36.1236 14.4023 36.1999 15.1576 36.6432 15.7927C37.1724 16.5521 37.9572 16.9081 38.8651 17.0215C39.8548 17.1452 40.819 17.0305 41.7585 16.7122C41.9826 16.6373 42.0637 16.6868 42.1152 16.9171C42.3214 17.8428 42.2815 17.6758 41.5778 17.8676C40.3441 18.2023 39.0947 18.2586 37.8411 17.9287C36.2823 17.5198 35.3586 16.5061 35.0095 14.9645C34.6652 13.4429 34.7435 11.9467 35.4267 10.5213C36.0576 9.20242 37.1717 8.58937 38.5902 8.47047C39.5723 8.388 40.5036 8.53576 41.3207 9.13919C41.5915 9.3385 41.8321 9.56873 42.0238 9.84364C42.7248 10.8471 42.9716 11.968 42.8836 13.1755C42.8678 13.392 42.7887 13.4704 42.5558 13.4676C41.5235 13.4539 40.4905 13.4614 39.4575 13.4614Z" fill="white"/>
<path id="Vector_9" fill-rule="evenodd" clip-rule="evenodd" d="M77.7091 10.1931C77.9462 9.86388 78.1978 9.55049 78.5071 9.28657C79.6727 8.28865 81.3338 8.20274 82.6121 8.87971C83.12 9.14843 83.4059 9.63433 83.6101 10.1594C83.8128 10.679 83.9111 11.2254 83.9159 11.7766C83.9317 13.7428 83.9207 15.7091 83.9296 17.6761C83.931 17.8672 83.8671 17.9208 83.6877 17.9407C82.753 18.0452 82.7317 18.0301 82.731 17.1153C82.731 15.5339 82.7317 13.9532 82.7297 12.3711C82.7297 11.9855 82.7187 11.5965 82.6183 11.2261C82.2472 9.85838 81.4665 9.30101 80.0156 9.64189C78.8136 9.92505 78.1758 10.789 77.8487 11.9202C77.7146 12.3827 77.6672 12.8576 77.6686 13.3394C77.6727 14.7648 77.6631 16.1902 77.6762 17.6156C77.6789 17.8651 77.5944 17.9311 77.3634 17.9469C76.4095 18.0142 76.4095 18.0197 76.4095 17.0761C76.4095 14.3806 76.4136 11.6858 76.4033 8.99104C76.4026 8.7182 76.4741 8.62404 76.7504 8.63366C77.6768 8.66665 77.56 8.46116 77.6081 9.45289C77.6198 9.68863 77.6095 9.92574 77.6095 10.1622C77.6432 10.1725 77.6762 10.1828 77.7091 10.1931Z" fill="white"/>
<path id="Vector_10" fill-rule="evenodd" clip-rule="evenodd" d="M61.7348 13.1764C61.7348 14.5695 61.7286 15.964 61.7403 17.3578C61.7424 17.6169 61.6544 17.7151 61.4035 17.7715C60.3314 18.0134 59.2524 18.1722 58.1514 18.1316C57.515 18.1089 56.8772 18.0512 56.2847 17.799C55.1714 17.3234 54.6483 16.4018 54.4346 15.2691C54.3281 14.7063 54.3164 14.1344 54.3178 13.5626C54.3205 12.0438 54.326 10.5249 54.3116 9.0067C54.3088 8.71117 54.4092 8.63626 54.6882 8.63557C55.5377 8.6342 55.537 8.62389 55.5377 9.46374C55.5384 11.0342 55.5411 12.6046 55.5397 14.175C55.5397 14.5722 55.5865 14.9633 55.6834 15.3475C55.9198 16.2808 56.6146 16.8911 57.5706 17.0169C58.4352 17.1303 59.2936 17.1007 60.1527 16.9523C60.4235 16.9055 60.5266 16.8093 60.5252 16.5131C60.5115 14.0073 60.5218 11.5008 60.5115 8.99364C60.5101 8.72286 60.5774 8.61083 60.8572 8.63832C61.0427 8.65619 61.2331 8.65344 61.42 8.63832C61.6695 8.61839 61.741 8.72217 61.7389 8.96409C61.73 10.3682 61.7348 11.7723 61.7348 13.1764Z" fill="white"/>
<path id="Vector_11" fill-rule="evenodd" clip-rule="evenodd" d="M30.1545 8.45791C30.8356 8.44417 31.5201 8.56856 32.1991 8.7445C32.4197 8.80155 32.4788 8.90945 32.439 9.12388C32.3022 9.86819 32.307 9.86407 31.5654 9.69294C30.7153 9.49707 29.8548 9.40772 28.9944 9.60222C28.1848 9.78435 27.7635 10.5101 27.9916 11.2867C28.0954 11.6407 28.3683 11.8517 28.6748 12.0207C29.3098 12.3712 30.0315 12.4895 30.6954 12.765C31.2947 13.0132 31.8706 13.2702 32.2843 13.8159C33.1771 14.9932 32.641 17.0158 31.2953 17.6358C29.7614 18.343 28.2177 18.2124 26.6514 17.8227C26.5016 17.7863 26.3992 17.7162 26.4824 17.5382C26.4906 17.5203 26.4899 17.4976 26.4947 17.4777C26.6817 16.6763 26.6776 16.6942 27.4686 16.8646C28.3504 17.0543 29.2397 17.1437 30.1297 16.8942C30.7971 16.7066 31.5654 15.9829 31.4603 15.2275C31.3723 14.5953 30.9964 14.1801 30.4582 13.897C29.7724 13.5362 29.0047 13.3843 28.2961 13.0819C27.4308 12.7114 26.7971 12.1623 26.7284 11.1396C26.6322 9.70394 27.5263 8.75275 28.9779 8.52733C29.3607 8.46822 29.7449 8.44966 30.1545 8.45791Z" fill="white"/>
<path id="Vector_12" fill-rule="evenodd" clip-rule="evenodd" d="M49.7492 8.45804C50.3575 8.4388 51.0138 8.54601 51.6653 8.7034C51.8543 8.74945 51.9107 8.82023 51.877 9.0271C51.7526 9.78929 51.765 9.77898 51.02 9.63122C50.2798 9.48414 49.5314 9.44222 48.7829 9.57692C47.7046 9.77073 46.9644 10.3941 46.5905 11.4078C46.1204 12.6813 46.1142 13.9823 46.596 15.2497C46.9987 16.3108 47.864 16.8338 48.9534 17.0166C49.8221 17.1624 50.6798 17.0977 51.5176 16.8325C51.7045 16.774 51.7787 16.8235 51.8426 16.9919C52.1203 17.7177 52.0983 17.7754 51.343 17.952C50.1636 18.2276 48.9802 18.2269 47.8187 17.8792C46.484 17.4785 45.629 16.5624 45.2641 15.2387C44.8641 13.7913 44.86 12.3384 45.4744 10.9343C46.1383 9.42022 47.3403 8.64429 48.965 8.47591C49.0894 8.46354 49.2152 8.46148 49.3403 8.45873C49.4551 8.45598 49.5698 8.45804 49.7492 8.45804Z" fill="white"/>
<path id="Vector_13" fill-rule="evenodd" clip-rule="evenodd" d="M66.235 10.0952C66.5972 9.59147 67.0075 9.14062 67.591 8.88839C68.0907 8.67259 68.6185 8.63822 69.1532 8.6451C69.2838 8.64647 69.3415 8.71245 69.3539 8.83341C69.3608 8.90557 69.3711 8.97774 69.3752 9.05059C69.4123 9.74748 69.4116 9.74748 68.7223 9.79147C67.2969 9.88081 66.4124 10.7674 66.2508 12.2492C66.1931 12.7784 66.1924 13.3076 66.1924 13.8381C66.1924 15.0965 66.1849 16.3556 66.1986 17.614C66.2014 17.8628 66.1216 17.9528 65.8852 17.9446C65.6667 17.937 65.4474 17.937 65.2289 17.9439C65.0117 17.9515 64.9251 17.8834 64.9258 17.6408C64.9354 14.7378 64.934 11.8354 64.9285 8.93306C64.9278 8.72138 64.9849 8.64578 65.2041 8.63547C66.0941 8.59492 66.0955 8.58805 66.1374 9.46845C66.1471 9.67326 66.1388 9.87875 66.1388 10.0842C66.1711 10.0877 66.2027 10.0918 66.235 10.0952Z" fill="white"/>
<path id="Vector_14" fill-rule="evenodd" clip-rule="evenodd" d="M73.1986 13.2906C73.1986 14.7359 73.1931 16.1812 73.2048 17.6266C73.2061 17.8561 73.1408 17.9276 72.914 17.9461C71.9945 18.0224 71.9952 18.03 71.9952 17.1365C71.9945 14.7551 71.991 12.3744 72 9.99303C72.0013 9.73736 71.9388 9.63358 71.6728 9.66382C71.4873 9.68444 71.2948 9.6487 71.1106 9.67207C70.824 9.70918 70.7326 9.59647 70.7251 9.31813C70.7086 8.66178 70.6976 8.66178 71.3416 8.66178C71.8632 8.66178 72.3848 8.67346 72.9058 8.65628C73.1422 8.64872 73.2054 8.72226 73.2041 8.95456C73.1938 10.3999 73.1986 11.8445 73.1986 13.2906Z" fill="white"/>
<path id="Vector_15" fill-rule="evenodd" clip-rule="evenodd" d="M72.1851 4.83931C72.9611 4.83725 72.9611 4.83725 72.9576 5.6228C72.9549 6.41454 72.9549 6.41454 72.1673 6.4166C71.3707 6.41935 71.3707 6.41935 71.3659 5.63723C71.3611 4.84137 71.3611 4.84137 72.1851 4.83931Z" fill="white"/>
<path id="Vector_16" fill-rule="evenodd" clip-rule="evenodd" d="M2.24266 11.3792C2.26191 11.5125 2.29215 11.6472 2.21448 11.7736C2.19043 11.6396 2.17737 11.507 2.24266 11.3792Z" fill="white"/>
<path id="Vector_17" fill-rule="evenodd" clip-rule="evenodd" d="M2.30671 10.8193C2.33008 10.9114 2.34932 11.0035 2.27991 11.0867C2.24967 10.9939 2.26341 10.9052 2.30671 10.8193Z" fill="white"/>
<path id="Vector_18" fill-rule="evenodd" clip-rule="evenodd" d="M12.5854 18.2141C12.6095 18.2162 12.6329 18.2175 12.6562 18.2196C12.6301 18.2499 12.6068 18.243 12.5854 18.2141Z" fill="white"/>
<path id="Vector_19" fill-rule="evenodd" clip-rule="evenodd" d="M7.25048 11.3325C7.26423 11.3868 7.26079 11.437 7.21406 11.4762C7.19 11.4191 7.19825 11.3703 7.25048 11.3325Z" fill="white"/>
</g>
<defs>
<clipPath id="clip0_1524_19181">
<rect width="95.5309" height="22.68" fill="white" transform="translate(0.0341797 0.859863)"/>
</clipPath>
</defs>
</svg>
