<svg viewBox="0 0 112 20" fill="none" xmlns="http://www.w3.org/2000/svg">
<g id="Solidified&#39;s logo 1" clip-path="url(#clip0_1524_19168)">
<g id="Clip path group">
<mask id="mask0_1524_19168" style="mask-type:luminance" maskUnits="userSpaceOnUse" x="0" y="0" width="112" height="20">
<g id="clip0_1_4">
<path id="Vector" d="M111.08 0.47998H0.919922V19.92H111.08V0.47998Z" fill="white"/>
</g>
</mask>
<g mask="url(#mask0_1524_19168)">
<g id="Group">
<path id="Vector_2" fill-rule="evenodd" clip-rule="evenodd" d="M15.9845 0.47998V5.22144L14.1015 6.16974V2.37656H2.803V8.06633H15.9845V11.8595C15.9845 16.0493 12.6122 19.4458 8.45225 19.4458C4.6017 19.4458 1.42599 16.5358 0.974838 12.7802L2.803 11.8595V12.4917H2.80781C2.93122 15.4028 5.41109 17.7263 8.45225 17.7263C11.4934 17.7263 13.9733 15.4028 14.0966 12.4917H14.1015V9.96293H0.919922V0.47998H15.9845Z" fill="white"/>
<path id="Vector_3" fill-rule="evenodd" clip-rule="evenodd" d="M26.3808 15.3638C25.8307 15.3292 25.3511 15.2773 24.9422 15.2081V14.2006C25.9743 14.3093 26.8652 14.3636 27.615 14.3636C28.0823 14.3636 28.4499 14.3389 28.7177 14.2895C28.9854 14.2401 29.2069 14.1512 29.3822 14.0228C29.5575 13.9043 29.6694 13.724 29.7182 13.482C29.7668 13.2399 29.7912 12.9115 29.7912 12.4966C29.7912 11.9731 29.7668 11.6076 29.7182 11.4002C29.6694 11.1927 29.5599 11.0445 29.3895 10.9556C29.2192 10.8668 28.9148 10.7927 28.4767 10.7334L26.4173 10.4667C25.9207 10.3975 25.5483 10.2543 25.3 10.037C25.0517 9.8197 24.8886 9.53817 24.8107 9.19242C24.7328 8.84667 24.6938 8.39229 24.6938 7.82928C24.6938 7.06866 24.8107 6.4834 25.0444 6.07343C25.2781 5.66349 25.6213 5.3795 26.0741 5.22145C26.5268 5.0634 27.1232 4.98438 27.8633 4.98438C28.3696 4.98438 28.8637 5.0066 29.3457 5.05105C29.8277 5.0955 30.2245 5.1523 30.5361 5.22145V6.1994C29.8155 6.09072 29.0122 6.03639 28.1261 6.03639C27.6296 6.03639 27.2352 6.06602 26.9431 6.12529C26.651 6.18456 26.4271 6.27842 26.2712 6.40684C26.1057 6.53526 25.9962 6.70564 25.9426 6.918C25.8891 7.13041 25.8623 7.42424 25.8623 7.7996C25.8623 8.23426 25.8866 8.55033 25.9353 8.74793C25.984 8.94548 26.0814 9.08624 26.2274 9.17018C26.3735 9.25417 26.6121 9.31592 26.9431 9.35543L28.9587 9.6221C29.4844 9.69129 29.8861 9.79746 30.1636 9.94069C30.4411 10.0839 30.6481 10.3432 30.7843 10.7186C30.911 11.0347 30.9742 11.5878 30.9742 12.3781C30.9742 13.2178 30.8622 13.8573 30.6383 14.2969C30.4143 14.7365 30.0906 15.0328 29.667 15.1859C29.2435 15.3391 28.6763 15.4156 27.9655 15.4156C27.4591 15.4156 26.9309 15.3983 26.3808 15.3638ZM36.2219 15.0229C35.735 14.7612 35.4259 14.2944 35.2944 13.6227C35.163 12.951 35.0972 11.8101 35.0972 10.2C35.0972 8.58984 35.163 7.44894 35.2944 6.77723C35.4259 6.10553 35.735 5.6388 36.2219 5.37703C36.7087 5.11526 37.5266 4.98438 38.6756 4.98438C39.8246 4.98438 40.64 5.11526 41.122 5.37703C41.604 5.6388 41.9107 6.10553 42.0422 6.77723C42.1736 7.44894 42.2393 8.58984 42.2393 10.2C42.2393 11.8101 42.1736 12.951 42.0422 13.6227C41.9107 14.2944 41.604 14.7612 41.122 15.0229C40.64 15.2847 39.8246 15.4156 38.6756 15.4156C37.5266 15.4156 36.7087 15.2847 36.2219 15.0229ZM40.3406 14.1561C40.6327 14.0178 40.8275 13.682 40.9248 13.1486C41.0222 12.6152 41.0709 11.6323 41.0709 10.2C41.0709 8.76766 41.0222 7.78479 40.9248 7.25139C40.8275 6.71799 40.6327 6.38214 40.3406 6.24383C40.0485 6.10553 39.4935 6.03639 38.6756 6.03639C37.8577 6.03639 37.3002 6.10553 37.0033 6.24383C36.7063 6.38214 36.5091 6.71799 36.4117 7.25139C36.3144 7.78479 36.2657 8.76766 36.2657 10.2C36.2657 11.6323 36.3144 12.6152 36.4117 13.1486C36.5091 13.682 36.7063 14.0178 37.0033 14.1561C37.3002 14.2944 37.8577 14.3636 38.6756 14.3636C39.4935 14.3636 40.0485 14.2944 40.3406 14.1561ZM46.8151 15.297V5.10291H47.9835V14.2154H51.9563V15.297H46.8151ZM55.9186 15.297V5.10291H57.0871V15.297H55.9186ZM61.9697 5.10291H64.7736C65.9718 5.10291 66.8184 5.22886 67.3153 5.48075C67.8116 5.73264 68.1284 6.18702 68.2647 6.8439C68.401 7.5008 68.4691 8.61951 68.4691 10.2C68.4691 11.7805 68.401 12.8992 68.2647 13.5561C68.1284 14.213 67.8116 14.6674 67.3153 14.9192C66.8184 15.1711 65.9718 15.297 64.7736 15.297H61.9697V5.10291ZM64.6425 14.245C65.5578 14.245 66.1785 14.1784 66.5044 14.045C66.8309 13.9117 67.045 13.5881 67.1472 13.0745C67.2494 12.5609 67.3005 11.6027 67.3005 10.2C67.3005 8.80717 67.2494 7.85146 67.1472 7.33287C67.045 6.81428 66.8281 6.48832 66.497 6.35498C66.166 6.22159 65.5482 6.15493 64.6425 6.15493H63.1383V14.245H64.6425ZM73.0595 15.297V5.10291H74.2281V15.297H73.0595ZM79.1103 15.297V5.10291H84.4855V6.15493H80.2789V9.8444H84.0323V10.8964H80.2789V15.297H79.1103ZM88.5937 15.297V5.10291H89.7618V15.297H88.5937ZM94.6446 15.297V5.10291H100.282V6.15493H95.8132V9.6221H99.6978V10.6741H95.8132V14.245H100.282V15.297H94.6446ZM104.581 5.10291H107.385C108.583 5.10291 109.429 5.22886 109.926 5.48075C110.423 5.73264 110.739 6.18702 110.876 6.8439C111.012 7.5008 111.08 8.61951 111.08 10.2C111.08 11.7805 111.012 12.8992 110.876 13.5561C110.739 14.213 110.423 14.6674 109.926 14.9192C109.429 15.1711 108.583 15.297 107.385 15.297H104.581V5.10291ZM107.253 14.245C108.169 14.245 108.789 14.1784 109.115 14.045C109.442 13.9117 109.656 13.5881 109.758 13.0745C109.86 12.5609 109.911 11.6027 109.911 10.2C109.911 8.80717 109.86 7.85146 109.758 7.33287C109.656 6.81428 109.44 6.48832 109.108 6.35498C108.777 6.22159 108.159 6.15493 107.253 6.15493H105.749V14.245H107.253Z" fill="white"/>
</g>
</g>
</g>
</g>
<defs>
<clipPath id="clip0_1524_19168">
<rect width="110.16" height="19.44" fill="white" transform="translate(0.919922 0.47998)"/>
</clipPath>
</defs>
</svg>
