<svg width="104" height="22" viewBox="0 0 104 22" fill="none" xmlns="http://www.w3.org/2000/svg">
<g id="Spearbit 1" clip-path="url(#clip0_1524_19081)">
<path id="Vector" d="M22.2681 12.285C22.352 13.2959 22.6712 14.1552 23.2926 15.0818C23.9477 15.9747 25.1906 16.5813 26.8534 16.5813C28.1299 16.5813 29.1545 16.2443 29.9103 15.5872C30.6829 14.9133 31.0693 14.0372 31.0693 12.9589C31.0021 11.7964 30.7669 11.0383 30.0951 10.4823C29.6248 10.0779 29.44 9.90946 28.7682 9.63989C28.4323 9.50511 28.1971 9.42087 28.0459 9.37032L27.3069 9.13445C26.9542 9.01651 26.6687 8.93227 26.4839 8.88173C26.2991 8.83119 26.0808 8.74695 25.8289 8.62901C25.1066 8.3089 24.8379 8.00563 24.7707 7.39911C24.7707 6.65779 25.5097 6.05127 26.719 6.05127C27.9116 6.05127 28.6842 6.60725 29.0201 7.73607L30.7333 7.38226C30.2462 5.41104 28.7514 4.28223 26.719 4.28223C25.5433 4.28223 24.6195 4.58549 23.9477 5.20887C23.2926 5.81539 22.9567 6.53986 22.9567 7.39911C22.9567 8.37629 23.2758 9.1176 23.9309 9.60619C24.5859 10.0948 25.5433 10.516 26.7862 10.8361C28.5498 11.291 29.2217 11.8638 29.2217 12.9589C29.2217 14.1889 28.2475 14.8122 26.8534 14.8122C25.4089 14.7617 24.7203 14.2057 24.3676 13.397C24.1156 12.7905 24.0821 12.5041 24.0149 11.9818L22.2681 12.285Z" fill="white"/>
<path id="Vector_2" d="M35.3036 16.3283V11.7793H37.7727C38.7972 11.7793 39.6538 11.4255 40.3257 10.7347C41.0143 10.0271 41.3502 9.16787 41.3502 8.14014C41.3502 7.14611 40.9975 6.28686 40.2921 5.59609C39.6035 4.88848 38.7636 4.53467 37.7727 4.53467H33.4561V16.3283H35.3036ZM35.3036 6.30371H37.7727C38.7133 6.30371 39.5027 6.97763 39.5027 8.14014C39.5027 9.16787 38.7804 10.0103 37.7727 10.0103H35.3036V6.30371Z" fill="white"/>
<path id="Vector_3" d="M51.346 16.3283V14.5592H45.9208V11.0043H50.8589V9.23526H45.9208V6.30371H51.346V4.53467H44.0732V16.3283H51.346Z" fill="white"/>
<path id="Vector_4" d="M54.8917 16.3283L55.7483 13.7168H60.0649L60.9047 16.3283H62.8027L58.7212 4.53467H57.1088L53.0273 16.3283H54.8917ZM57.8982 7.1798L59.5443 12.1331H56.2858L57.8982 7.1798Z" fill="white"/>
<path id="Vector_5" d="M66.6005 16.3283V11.476H68.2801L70.5812 16.3283H72.5799L70.1613 11.2065L70.3796 11.1054C70.9003 10.8864 72.2272 9.89233 72.2272 8.00536C72.2272 7.02817 71.8745 6.20262 71.1859 5.54555C70.4972 4.87163 69.691 4.53467 68.7336 4.53467H64.7529V16.3283H66.6005ZM66.6005 6.30371H68.7336C69.6238 6.30371 70.3796 6.96078 70.3796 8.03905C70.3796 9.48798 69.2207 9.707 68.7336 9.707H66.6005V6.30371Z" fill="white"/>
<path id="Vector_6" d="M79.5528 16.3283C80.5438 16.3283 81.3836 16.025 82.0722 15.4016C82.7609 14.7446 83.1136 13.8516 83.1136 12.7565C83.08 11.6445 82.6601 10.8864 82.2066 10.4483C81.8875 10.1114 81.8035 10.0608 81.7363 10.0103L81.9715 9.7744C82.2906 9.45428 82.6769 8.64558 82.6769 7.78633C82.6769 6.85969 82.3578 6.10153 81.7363 5.47816C81.1149 4.85478 80.3422 4.53467 79.4185 4.53467H74.6987V16.3283H79.5528ZM76.5463 6.30371H79.4185C80.1575 6.30371 80.8293 6.826 80.8293 7.78633C80.8293 9.06678 79.8719 9.23526 79.4185 9.23526H76.5463V6.30371ZM76.5463 11.0043H79.5528C80.4934 11.0043 81.266 11.6277 81.266 12.7565C81.266 14.3402 80.0903 14.5592 79.5528 14.5592H76.5463V11.0043Z" fill="white"/>
<path id="Vector_7" d="M92.5044 16.3283V14.5592H89.733V6.30371H92.5044V4.53467H85.1309V6.30371H87.8854V14.5592H85.1309V16.3283H92.5044Z" fill="white"/>
<path id="Vector_8" d="M99.8296 16.3283V6.30371H103.424V4.53467H94.3877V6.30371H97.9821V16.3283H99.8296Z" fill="white"/>
<path id="Vector_9" fill-rule="evenodd" clip-rule="evenodd" d="M14.2308 15.2702C13.7432 15.2375 13.2539 15.2373 12.7663 15.2696C12.7362 15.2716 12.7061 15.2737 12.676 15.2759C10.5612 15.4386 8.87205 16.2318 7.70979 17.5936L4.16541 15.8136C4.55551 14.0644 4.17649 12.2327 3.03816 10.437C3.02184 10.4114 3.00542 10.3858 2.98889 10.3603C2.72243 9.94957 2.42911 9.55697 2.11084 9.18509L14.2364 0.0698242L14.2308 15.2702ZM12.3264 3.89821L12.3229 13.3848C10.4331 13.5634 8.73455 14.1854 7.36437 15.279L6.21955 14.7041C6.27116 12.9485 5.74968 11.2118 4.75898 9.58687L12.3264 3.89821Z" fill="white"/>
<path id="Vector_10" d="M3.28048 17.9783L6.51302 19.602L5.75304 21.1243L2.52051 19.5006L3.28048 17.9783Z" fill="white"/>
</g>
<defs>
<clipPath id="clip0_1524_19081">
<rect width="103.68" height="21.06" fill="white" transform="translate(0.160156 0.0700684)"/>
</clipPath>
</defs>
</svg>
