<svg viewBox="0 0 67 40" fill="none" xmlns="http://www.w3.org/2000/svg">
<g id="svgexport-1 (2) 1" clip-path="url(#clip0_1524_19093)">
<path id="Vector" d="M24.2415 38.1106L18.8655 35.2317L17.5664 39.0398L24.2314 38.113C24.2112 38.113 24.201 38.113 24.2415 38.1106Z" fill="white"/>
<path id="Vector_2" d="M24.2415 38.1106L24.2314 38.1131C24.2565 38.1131 24.2992 38.1106 24.2415 38.1106Z" fill="white"/>
<path id="Vector_3" d="M42.7476 36.2571L47.0753 35.0049L48.7011 29.9644L44.705 30.233L42.7476 36.2571Z" fill="white"/>
<path id="Vector_4" d="M53.0465 3.96313L49.7393 1.85571L47.8882 7.64064L51.5272 8.71533L53.0465 3.96313Z" fill="white"/>
<path id="Vector_5" d="M30.7319 2.61241C30.7319 2.61241 32.973 3.28777 33.8569 3.53424L37.0425 4.46102L37.0981 0.159912L31.4967 1.25429L30.7319 2.61241Z" fill="white"/>
<path id="Vector_6" d="M8.49316 18.6779L12.4259 18.6877L13.8262 14.3718L10.2506 13.4402C9.87074 14.6257 8.88066 17.4923 8.49316 18.6779Z" fill="white"/>
<path id="Vector_7" d="M1.1748 14.6678L4.11734 17.6798L5.81146 12.3361L2.20039 11.3945L1.1748 14.6678Z" fill="white"/>
<path id="Vector_8" d="M63.5 31.9138C63.4393 30.4004 63.0113 29.9051 62.1022 28.9758L57.3618 29.2864C58.6836 30.1022 59.4939 31.1128 59.6611 32.4684C59.8459 33.9572 58.1999 35.6776 56.6071 35.6776C55.7183 35.6776 55.2751 34.9924 55.2751 34.2062C55.3004 33.6195 55.5106 32.8579 55.8246 32.3501H55.7993H51.8033C51.4893 33.1389 51.2285 34.0287 51.2285 34.8667C51.2285 37.7382 53.8139 38.4752 56.2677 38.4752C58.8254 38.4752 60.9424 37.9921 62.2744 35.6776C62.8746 34.6326 63.5507 33.134 63.5 31.9138Z" fill="white"/>
<path id="Vector_9" d="M13.477 0.549072L1.15222 0.558932L0.189941 3.53396L4.70758 3.52904L2.47408 10.4453L6.08768 11.3869L8.59723 3.52657L12.5147 3.52164L13.477 0.549072Z" fill="white"/>
<path id="Vector_10" d="M14.8218 11.1972C15.2649 11.17 15.7106 11.17 16.1538 11.17C16.8856 11.1676 17.9821 11.2193 17.9821 12.2102C17.9846 12.8954 17.7238 13.7605 17.5162 14.4212C17.1262 15.7694 16.6577 17.1152 16.5792 18.4881L20.6258 18.4831C20.5195 16.2722 21.9274 14.3398 21.9249 12.1535C21.9249 10.6795 20.7752 10.0953 19.4433 9.86615L19.8332 9.81436C22.7327 9.42986 24.3483 7.21891 24.3458 4.44848C24.3432 1.37732 21.7046 0.51463 19.0153 0.517095L14.3685 0.522025C13.0466 4.51503 11.7932 8.53021 10.5093 12.5405L14.0823 13.4697L14.8218 11.1972ZM17.3211 3.33931L18.6279 3.33685C19.5952 3.33685 20.56 3.56361 20.5625 4.68264C20.5651 6.05554 19.5471 8.36997 17.8757 8.36997L15.7334 8.37247L17.3211 3.33931Z" fill="white"/>
<path id="Vector_11" d="M25.7713 18.5327L27.8553 14.6925L32.844 14.6875L32.692 18.5499L36.6095 18.5475L36.921 5.39766L33.5556 4.40434C33.2491 6.87162 33.0769 9.36604 33.0769 11.8407H33.0516L29.2911 11.8432C30.6434 9.35368 31.9399 6.8445 33.1074 4.27124L30.4104 3.4751L21.6968 18.5351L25.7713 18.5327Z" fill="white"/>
<path id="Vector_12" d="M53.5047 18.508L54.4949 15.5823L49.2454 15.5897L51.1902 9.61002L47.5513 8.5354L44.3125 18.5154L53.5047 18.508Z" fill="white"/>
<path id="Vector_13" d="M29.19 19.6589H24.0469L19.2178 34.364L25.3637 37.6225C29.0431 37.4869 31.621 34.8373 31.621 31.1992C31.621 29.8017 30.7322 28.7098 29.3495 28.3277C32.0667 27.7189 33.814 26.0157 33.814 23.2206C33.8115 20.497 31.6438 19.6589 29.19 19.6589ZM27.0755 33.7651C26.3437 34.8323 25.5612 34.9088 24.333 34.9088H22.7402L24.49 29.6242C25.7688 29.6735 28.0403 29.3703 28.0403 31.1992C28.0403 32.0101 27.5466 33.1045 27.0755 33.7651ZM26.7615 27.0534H25.2978L26.8375 22.4023C27.9871 22.4541 30.1548 22.0991 30.1548 23.8269C30.1827 25.8604 28.8507 27.0534 26.7615 27.0534Z" fill="white"/>
<path id="Vector_14" d="M41.6466 6.8125L37.7443 19.5113L34.2979 29.8117L38.4357 29.5011L41.4238 20.337H41.4288L45.4653 7.92411C44.9031 7.7713 42.6646 7.0713 41.6466 6.8125Z" fill="white"/>
<path id="Vector_15" d="M43.5811 19.686L42.6138 22.6561H47.1339L45.0194 29.2692L48.9648 29.0055L51.0235 22.6561H54.9385L55.9058 19.686H43.5811Z" fill="white"/>
<path id="Vector_16" d="M61.4942 19.5059C57.4476 19.5059 55.0444 22.2492 55.0444 26.0623C55.0495 26.6169 55.5585 27.9824 56.5992 28.4383L61.4663 28.1179C60.6383 27.4377 59.1746 25.833 59.1746 24.9802C59.1746 23.8095 59.8457 22.2788 61.2308 22.2788C62.1703 22.2788 62.7451 22.5327 62.7451 23.5236C62.7451 24.1594 62.4311 24.7436 62.2488 25.3549H66.0092C66.2448 24.82 66.6094 23.5999 66.6094 23.0404C66.612 20.2675 63.8442 19.5059 61.4942 19.5059Z" fill="white"/>
<path id="Vector_17" d="M16.8729 19.7649C15.0319 19.7649 14.7685 21.0885 14.3127 22.4934C14.1608 22.9987 13.8721 23.615 13.8721 24.1449C13.8721 25.1653 14.8015 25.3601 15.665 25.3601C16.7209 25.3674 17.2831 25.0224 17.6579 24.0561C17.9137 23.3956 18.5796 21.579 18.5796 20.9406C18.5796 20.036 17.6427 19.7649 16.8729 19.7649ZM17.387 21.0638C17.387 21.2907 17.1236 22.0301 17.0349 22.2889L16.6272 23.5262C16.4677 23.9946 16.2753 24.5319 15.6675 24.5319C15.3231 24.5319 15.1003 24.3371 15.1003 23.9871C15.1003 23.5336 15.4599 22.6931 15.6118 22.2248C15.7637 21.759 15.9638 20.8297 16.493 20.6498C16.612 20.6103 16.7412 20.5955 16.8704 20.5955C17.1109 20.5955 17.3996 20.8051 17.3996 21.0565L17.387 21.0638Z" fill="white"/>
<path id="Vector_18" d="M21.5572 22.9199L21.8357 22.0227H20.2353L20.6683 20.6843H22.3498L22.6461 19.7871H19.7314L17.979 25.2886H19.2047L19.9643 22.9199H21.5572Z" fill="white"/>
</g>
<defs>
<clipPath id="clip0_1524_19093">
<rect width="66.42" height="38.88" fill="white" transform="translate(0.189941 0.159912)"/>
</clipPath>
</defs>
</svg>
