<svg viewBox="0 0 121 24" fill="none" xmlns="http://www.w3.org/2000/svg">
<path fill-rule="evenodd" clip-rule="evenodd" d="M0.600098 1.46137C0.600098 0.919362 1.03948 0.47998 1.58149 0.47998H5.38438C5.92636 0.47998 6.36577 0.919362 6.36577 1.46137V5.36872C6.41901 5.78486 6.73387 6.12577 7.15167 6.24257C7.21485 6.22977 7.28022 6.22307 7.34709 6.22307H11.15C11.692 6.22307 12.1314 6.66248 12.1314 7.20446V11.0073C12.1314 11.0375 12.13 11.0674 12.1273 11.0969C12.1288 11.0876 12.1302 11.0781 12.1314 11.0687V11.073C12.1952 11.5716 12.6346 11.9622 13.1765 11.9887H16.8762C16.8487 11.9869 16.821 11.9859 16.793 11.9859C17.3618 11.9859 17.8309 11.5852 17.897 11.0687V11.073C17.8975 11.0766 17.898 11.0803 17.8985 11.0839C17.8975 11.066 17.897 11.048 17.897 11.0299V7.22697C17.897 6.68499 18.3364 6.24566 18.8784 6.24566H22.6813C23.2232 6.24566 23.6627 6.68499 23.6627 7.22697V11.0299C23.6627 11.5718 23.2232 12.0113 22.6813 12.0113H18.8784C18.8507 12.0113 18.8232 12.0101 18.7961 12.0079C18.3229 12.0906 17.955 12.4544 17.897 12.9073V12.903C17.8955 12.8908 17.8937 12.8786 17.8916 12.8664C17.8952 12.9005 17.897 12.9351 17.897 12.9701V16.773C17.897 17.315 17.4576 17.7543 16.9157 17.7543H13.1524C12.6215 17.7913 12.1943 18.1807 12.1314 18.7329V18.7286V18.7284C12.1314 18.7308 12.1314 18.7332 12.1314 18.7357V22.5386C12.1314 23.0806 11.692 23.52 11.15 23.52H7.34709C6.80511 23.52 6.36577 23.0806 6.36577 22.5386V18.7357C6.36577 18.7067 6.36698 18.6779 6.36946 18.6495C6.36811 18.6582 6.36683 18.6671 6.36577 18.6759V18.6716C6.32307 18.3399 6.11463 18.0558 5.81995 17.8952C5.65609 17.8056 5.46534 17.7543 5.26171 17.7543H1.58149C1.03948 17.7543 0.600098 17.315 0.600098 16.773V1.46137ZM11.159 17.7544C11.1158 17.7497 11.0719 17.7472 11.0273 17.7472C11.5961 17.7472 12.0653 17.3466 12.1314 16.83V16.8343C12.1326 16.8438 12.1339 16.8532 12.1354 16.8626C12.1327 16.833 12.1314 16.8031 12.1314 16.773V12.9701C12.1314 12.9387 12.1329 12.9077 12.1357 12.8771C12.1341 12.8871 12.1327 12.8972 12.1314 12.9073V12.903C12.0888 12.5715 11.8803 12.2873 11.5856 12.1268C11.4442 12.0494 11.2829 12.0007 11.1106 11.9887H7.42466C7.43957 11.9897 7.45463 11.9902 7.46976 11.9902C6.90097 11.9902 6.43189 12.3908 6.36577 12.9073V16.773C6.36577 16.8056 6.36412 16.8378 6.36103 16.8696C6.36276 16.8588 6.36434 16.848 6.36577 16.8372V16.8415C6.4279 17.3269 6.84585 17.7099 7.36802 17.7543H11.15C11.153 17.7543 11.156 17.7544 11.159 17.7544Z" fill="white"/>
<g clip-path="url(#clip0_1524_19311)">
<path d="M38.0656 18.3385H37.9565L34.5115 7.46436H31.9028L36.8294 21.2189H39.1381L44.0556 7.46436H41.565L38.0656 18.3385Z" fill="white"/>
<path d="M57.7359 11.8295C57.7359 11.0183 57.6087 10.3255 57.345 9.72392C57.0905 9.13145 56.7269 8.64835 56.2543 8.26552C55.7816 7.8918 55.2363 7.60924 54.5999 7.41782C53.9637 7.2264 53.282 7.13525 52.5458 7.13525C51.8095 7.13525 51.1278 7.24464 50.4915 7.45429C49.8553 7.67305 49.3007 7.97384 48.8281 8.36579C48.3554 8.75774 47.9828 9.23171 47.701 9.7695C47.4192 10.3073 47.2829 10.9089 47.2829 11.5561H49.7006C49.7006 10.6719 49.9552 10.0338 50.4733 9.64189C50.9823 9.25906 51.6731 9.05852 52.5276 9.05852C52.9548 9.05852 53.3456 9.10411 53.7001 9.18614C54.0546 9.26817 54.3545 9.41401 54.5999 9.62366C54.8454 9.83331 55.0454 10.1068 55.1818 10.4622C55.3181 10.8177 55.3817 11.2553 55.3817 11.793V12.8959L50.9187 13.3153C49.5552 13.4338 48.5281 13.8895 47.8464 14.6551C47.1647 15.4299 46.8193 16.3505 46.8193 17.4262C46.8193 17.973 46.9192 18.4926 47.1192 18.9939C47.3193 19.4952 47.5919 19.9236 47.9555 20.2883C48.3554 20.6984 48.8372 21.0084 49.3916 21.2271C49.9462 21.4367 50.5642 21.5461 51.2459 21.5461C52.273 21.5461 53.1548 21.3091 53.891 20.8442C54.6272 20.3702 55.1818 19.6502 55.5635 18.6748H55.6726L55.7271 21.218H59.8265V19.1397H57.7814V11.8295H57.7359ZM55.3726 15.3935C55.3726 16.6331 55.0545 17.6449 54.4272 18.4287C53.8001 19.2126 52.9366 19.6046 51.8367 19.6046C51.0641 19.6046 50.4642 19.4587 50.028 19.1671C49.5916 18.8754 49.3734 18.4106 49.3734 17.7725V16.5602C49.3734 16.1683 49.4371 15.8492 49.5643 15.6213C49.6916 15.3935 50.0007 15.2568 50.5006 15.2294L55.3726 14.7736V15.3935Z" fill="white"/>
<path d="M63.8516 21.2189H66.2694V9.56082H70.4415V7.46436H63.8516V21.2189Z" fill="white"/>
<path d="M77.2236 7.46436H74.8057V21.2189H77.2236V7.46436Z" fill="white"/>
<path d="M93.6197 7.4634H91.2019V9.70569C90.7746 8.87623 90.1929 8.24729 89.4657 7.80065C88.7386 7.35402 87.8568 7.13525 86.8116 7.13525C85.9026 7.13525 85.1027 7.32667 84.421 7.70039C83.7393 8.0741 83.1666 8.59366 82.7212 9.23171C82.2668 9.87888 81.9305 10.6445 81.7123 11.5287C81.4851 12.4129 81.376 13.3517 81.376 14.3453C81.376 15.357 81.4851 16.2959 81.7123 17.1618C81.9395 18.0277 82.2758 18.7934 82.7212 19.4406C83.1757 20.0877 83.7393 20.6073 84.4119 20.981C85.0936 21.3547 85.8936 21.5461 86.8116 21.5461C87.8568 21.5461 88.7386 21.3274 89.4657 20.8808C90.1929 20.4341 90.7746 19.8051 91.2019 18.9757V21.218H91.5654H95.6648V19.1397H93.6197V7.4634ZM91.2019 15.5028C91.2019 16.6878 90.8746 17.6722 90.2292 18.4379C89.5839 19.2126 88.6477 19.5955 87.4296 19.5955C86.4025 19.5955 85.5662 19.3038 84.9118 18.7296C84.2574 18.1553 83.9302 17.3988 83.9302 16.469V12.2032C83.9302 11.2735 84.2574 10.5169 84.9118 9.93358C85.5662 9.35021 86.4025 9.06764 87.4296 9.06764C88.6477 9.06764 89.5839 9.45959 90.2292 10.2344C90.8746 11.0091 91.2019 11.9936 91.2019 13.1785V15.5028Z" fill="white"/>
<path d="M108.729 8.27464C108.338 7.88269 107.866 7.59101 107.33 7.40871C106.784 7.2264 106.184 7.13525 105.521 7.13525C104.475 7.13525 103.63 7.36313 102.976 7.828C102.321 8.29287 101.803 8.9218 101.421 9.73304V7.4634H99.0034V21.2179H101.421V13.1785C101.421 12.5769 101.503 12.03 101.676 11.5287C101.849 11.0274 102.085 10.5899 102.394 10.2161C102.703 9.85154 103.057 9.55986 103.475 9.36844C103.885 9.16791 104.339 9.06764 104.839 9.06764C105.884 9.06764 106.593 9.35932 106.984 9.93357C107.366 10.5078 107.566 11.3008 107.566 12.3126V21.2179H109.984V12.0482C109.984 11.1641 109.875 10.4075 109.656 9.78772C109.429 9.17702 109.12 8.66659 108.729 8.27464Z" fill="white"/>
<path d="M120.926 9.53369V7.46458H117.799V2.87061H115.381V7.46458H113.091V9.53369H115.381V21.2192H120.926V19.141H117.799V9.53369H120.926Z" fill="white"/>
<path d="M76.0152 2.07715C75.1062 2.07715 74.3608 2.81546 74.3608 3.73608V3.75432C74.3608 4.66582 75.0971 5.41324 76.0152 5.41324C76.9241 5.41324 77.6695 4.67493 77.6695 3.75432V3.73608C77.6695 2.82458 76.9332 2.07715 76.0152 2.07715Z" fill="white"/>
</g>
<defs>
<clipPath id="clip0_1524_19311">
<rect width="90.0132" height="19.8454" fill="white" transform="translate(30.9868 2.07715)"/>
</clipPath>
</defs>
</svg>
